<svg width="20" height="21" viewBox="0 0 20 21" fill="none" xmlns="http://www.w3.org/2000/svg">
<path d="M9.99998 10C12.5773 10 14.6666 7.91068 14.6666 5.33335C14.6666 2.75602 12.5773 0.666687 9.99998 0.666687C7.42265 0.666687 5.33331 2.75602 5.33331 5.33335C5.33331 7.91068 7.42265 10 9.99998 10Z" stroke="#3A3A3A"/>
<path d="M19.3333 18.1667V19.3334C19.3333 19.6428 19.2104 19.9395 18.9916 20.1583C18.7728 20.3771 18.4761 20.5 18.1667 20.5H1.83332C1.5239 20.5 1.22716 20.3771 1.00837 20.1583C0.789573 19.9395 0.666656 19.6428 0.666656 19.3334V18.1667C0.666656 16.3102 1.40415 14.5297 2.71691 13.2169C4.02966 11.9042 5.81014 11.1667 7.66666 11.1667H12.3333C14.1898 11.1667 15.9703 11.9042 17.2831 13.2169C18.5958 14.5297 19.3333 16.3102 19.3333 18.1667Z" stroke="#3A3A3A"/>
</svg>
